<?xml version="1.0" encoding="UTF-8" standalone="no"?>
<!-- Created with Inkscape (http://www.inkscape.org/) -->

<svg
   width="140mm"
   height="100mm"
   viewBox="0 0 140 100"
   version="1.1"
   id="svg1"
   inkscape:version="1.3.1 (9b9bdc1480, 2023-11-25, custom)"
   sodipodi:docname="gea-model-25.svg"
   xmlns:inkscape="http://www.inkscape.org/namespaces/inkscape"
   xmlns:sodipodi="http://sodipodi.sourceforge.net/DTD/sodipodi-0.dtd"
   xmlns="http://www.w3.org/2000/svg"
   xmlns:svg="http://www.w3.org/2000/svg">
  <sodipodi:namedview
     id="namedview1"
     pagecolor="#ffffff"
     bordercolor="#000000"
     borderopacity="0.25"
     inkscape:showpageshadow="2"
     inkscape:pageopacity="0.0"
     inkscape:pagecheckerboard="0"
     inkscape:deskcolor="#d1d1d1"
     inkscape:document-units="mm"
     inkscape:zoom="0.8979798"
     inkscape:cx="306.24297"
     inkscape:cy="282.85714"
     inkscape:window-width="1366"
     inkscape:window-height="704"
     inkscape:window-x="0"
     inkscape:window-y="0"
     inkscape:window-maximized="1"
     inkscape:current-layer="layer1" />
  <defs
     id="defs1">
    <clipPath
       clipPathUnits="userSpaceOnUse"
       id="clipPath380">
      <path
         d="M 0,0 H 596 V 842 H 0 Z"
         transform="translate(-110.0469,-669.92191)"
         id="path380" />
    </clipPath>
    <clipPath
       clipPathUnits="userSpaceOnUse"
       id="clipPath382">
      <path
         d="M 0,0 H 596 V 842 H 0 Z"
         transform="translate(-114.32813,-645.45312)"
         id="path382" />
    </clipPath>
    <clipPath
       clipPathUnits="userSpaceOnUse"
       id="clipPath402">
      <path
         d="M 0,0 H 596 V 842 H 0 Z"
         transform="translate(-193.42973,-544.80081)"
         id="path402" />
    </clipPath>
    <clipPath
       clipPathUnits="userSpaceOnUse"
       id="clipPath404">
      <path
         d="M 0,0 H 596 V 842 H 0 Z"
         transform="translate(-151.1211,-567.58201)"
         id="path404" />
    </clipPath>
    <clipPath
       clipPathUnits="userSpaceOnUse"
       id="clipPath406">
      <path
         d="M 0,0 H 596 V 842 H 0 Z"
         transform="translate(-153.2148,-570.44922)"
         id="path406" />
    </clipPath>
    <clipPath
       clipPathUnits="userSpaceOnUse"
       id="clipPath408">
      <path
         d="M 0,0 H 596 V 842 H 0 Z"
         transform="translate(-314.15228,-611.33982)"
         id="path408" />
    </clipPath>
    <clipPath
       clipPathUnits="userSpaceOnUse"
       id="clipPath410">
      <path
         d="M 0,0 H 596 V 842 H 0 Z"
         transform="translate(-305.99221,-526.43412)"
         id="path410" />
    </clipPath>
    <clipPath
       clipPathUnits="userSpaceOnUse"
       id="clipPath412">
      <path
         d="M 0,0 H 596 V 842 H 0 Z"
         transform="translate(-270.05468,-580.80081)"
         id="path412" />
    </clipPath>
    <clipPath
       clipPathUnits="userSpaceOnUse"
       id="clipPath414">
      <path
         d="M 0,0 H 596 V 842 H 0 Z"
         transform="translate(-323.11718,-580.64112)"
         id="path414" />
    </clipPath>
    <clipPath
       clipPathUnits="userSpaceOnUse"
       id="clipPath416">
      <path
         d="M 0,0 H 596 V 842 H 0 Z"
         transform="translate(-344.21483,-568.61721)"
         id="path416" />
    </clipPath>
    <clipPath
       clipPathUnits="userSpaceOnUse"
       id="clipPath418">
      <path
         d="M 0,0 H 596 V 842 H 0 Z"
         transform="translate(-344.14838,-557.98782)"
         id="path418" />
    </clipPath>
    <clipPath
       clipPathUnits="userSpaceOnUse"
       id="clipPath420">
      <path
         d="M 0,0 H 596 V 842 H 0 Z"
         transform="translate(0,2.5000001e-5)"
         id="path420" />
    </clipPath>
    <clipPath
       clipPathUnits="userSpaceOnUse"
       id="clipPath422">
      <path
         d="M 0,0 H 596 V 842 H 0 Z"
         transform="translate(0,2.5000001e-5)"
         id="path422" />
    </clipPath>
    <clipPath
       clipPathUnits="userSpaceOnUse"
       id="clipPath424">
      <path
         d="M 0,0 H 596 V 842 H 0 Z"
         transform="translate(0,2.5000001e-5)"
         id="path424" />
    </clipPath>
    <clipPath
       clipPathUnits="userSpaceOnUse"
       id="clipPath426">
      <path
         d="M 0,0 H 596 V 842 H 0 Z"
         transform="translate(0,2.5000001e-5)"
         id="path426" />
    </clipPath>
    <clipPath
       clipPathUnits="userSpaceOnUse"
       id="clipPath428">
      <path
         d="M 0,0 H 596 V 842 H 0 Z"
         transform="translate(-323.11718,-555.89791)"
         id="path428" />
    </clipPath>
    <clipPath
       clipPathUnits="userSpaceOnUse"
       id="clipPath430">
      <path
         d="M 0,0 H 596 V 842 H 0 Z"
         transform="translate(-354.57031,-582.67191)"
         id="path430" />
    </clipPath>
    <clipPath
       clipPathUnits="userSpaceOnUse"
       id="clipPath432">
      <path
         d="M 0,0 H 596 V 842 H 0 Z"
         transform="translate(-350.24611,-557.95701)"
         id="path432" />
    </clipPath>
    <clipPath
       clipPathUnits="userSpaceOnUse"
       id="clipPath434">
      <path
         d="M 0,0 H 596 V 842 H 0 Z"
         transform="translate(-350.29688,-577.16022)"
         id="path434" />
    </clipPath>
    <clipPath
       clipPathUnits="userSpaceOnUse"
       id="clipPath436">
      <path
         d="M 0,0 H 596 V 842 H 0 Z"
         transform="translate(-344.19143,-566.52001)"
         id="path436" />
    </clipPath>
    <clipPath
       clipPathUnits="userSpaceOnUse"
       id="clipPath438">
      <path
         d="M 0,0 H 596 V 842 H 0 Z"
         transform="translate(-346.54298,-544.80861)"
         id="path438" />
    </clipPath>
    <clipPath
       clipPathUnits="userSpaceOnUse"
       id="clipPath440">
      <path
         d="M 0,0 H 596 V 842 H 0 Z"
         transform="translate(-345.28523,-544.90231)"
         id="path440" />
    </clipPath>
    <clipPath
       clipPathUnits="userSpaceOnUse"
       id="clipPath442">
      <path
         d="M 0,0 H 596 V 842 H 0 Z"
         transform="translate(-337.97663,-552.96091)"
         id="path442" />
    </clipPath>
    <clipPath
       clipPathUnits="userSpaceOnUse"
       id="clipPath444">
      <path
         d="M 0,0 H 596 V 842 H 0 Z"
         transform="translate(0,2.5000001e-5)"
         id="path444" />
    </clipPath>
    <marker
       style="overflow:visible"
       id="ArrowWide"
       refX="0"
       refY="0"
       orient="auto-start-reverse"
       inkscape:stockid="Wide arrow"
       markerWidth="1"
       markerHeight="1"
       viewBox="0 0 1 1"
       inkscape:isstock="true"
       inkscape:collect="always"
       preserveAspectRatio="xMidYMid">
      <path
         style="fill:none;stroke:context-stroke;stroke-width:1;stroke-linecap:butt"
         d="M 3,-3 0,0 3,3"
         transform="rotate(180,0.125,0)"
         sodipodi:nodetypes="ccc"
         id="path1" />
    </marker>
  </defs>
  <g
     inkscape:label="Layer 1"
     inkscape:groupmode="layer"
     id="layer1">
    <path
       id="path379"
       d="M 0,0 1.855,-0.008 4.414,-6.356 V -7.57 h -7.019 l 0.007,1.214 z m 2.789,-6.258 -1.43,3.75 C 1.156,-1.953 1.004,-1.512 0.914,-1.184 0.91,-1.203 0.898,-1.25 0.875,-1.317 0.855,-1.383 0.816,-1.512 0.75,-1.711 0.687,-1.906 0.602,-2.149 0.5,-2.434 0.395,-2.719 -0.086,-3.992 -0.949,-6.258 Z M 5.937,-7.57 c -0.105,0.113 -0.191,0.293 -0.246,0.531 -0.058,0.246 -0.086,0.488 -0.086,0.738 v 4.543 h 1.516 v -4.594 c 0,-0.215 0.039,-0.437 0.113,-0.664 0.078,-0.226 0.184,-0.41 0.317,-0.554 z m 6.618,1.273 c -0.223,-0.484 -0.489,-0.836 -0.797,-1.051 -0.309,-0.219 -0.688,-0.328 -1.133,-0.328 -0.762,0 -1.328,0.242 -1.707,0.734 -0.371,0.497 -0.559,1.247 -0.559,2.25 0,1.02 0.204,1.778 0.61,2.286 0.406,0.504 1.008,0.757 1.793,0.757 0.472,0 0.875,-0.121 1.211,-0.363 0.34,-0.234 0.597,-0.57 0.769,-1.008 h 0.016 c 0.09,0.446 0.226,0.864 0.402,1.262 h 1.426 c -0.18,-0.324 -0.363,-0.773 -0.559,-1.348 -0.191,-0.574 -0.304,-1.066 -0.347,-1.476 0.113,-1.11 0.355,-2.102 0.73,-2.988 h -1.453 c -0.176,0.429 -0.301,0.855 -0.383,1.273 z m -2.61,1.621 c 0,-0.699 0.078,-1.203 0.227,-1.508 0.156,-0.304 0.402,-0.457 0.746,-0.457 0.32,0 0.594,0.18 0.824,0.543 0.231,0.364 0.375,0.84 0.442,1.438 -0.079,0.64 -0.223,1.125 -0.438,1.465 -0.207,0.335 -0.469,0.503 -0.785,0.503 -0.363,0 -0.625,-0.16 -0.785,-0.48 -0.153,-0.316 -0.231,-0.82 -0.231,-1.504 m 0.774,3.461 v 0.176 l 0.371,1.57 h 1.383 V 0.332 L 11.285,-1.215 Z M 19.27,-7.57 c -0.005,0.043 -0.012,0.105 -0.024,0.183 -0.008,0.078 -0.012,0.164 -0.019,0.258 -0.008,0.098 -0.016,0.191 -0.024,0.289 -0.004,0.098 -0.004,0.184 -0.004,0.258 h -0.015 c -0.282,-0.731 -0.723,-1.094 -1.325,-1.094 -0.187,0 -0.359,0.043 -0.515,0.129 -0.157,0.086 -0.274,0.203 -0.356,0.352 h -0.019 c 0.011,-0.153 0.019,-0.36 0.019,-0.618 v -1.992 h -1.511 v 8.047 h 1.511 v -3.25 c 0,-1.016 0.332,-1.523 0.989,-1.523 0.347,0 0.632,0.148 0.851,0.445 0.219,0.301 0.328,0.707 0.328,1.223 v 3.105 h 1.512 V -6.27 c 0,-0.464 0.012,-0.898 0.043,-1.3 z m 5.003,0.902 c 0.492,0 0.977,0.246 1.45,0.738 l 0.769,-0.754 c -0.262,-0.269 -0.5,-0.465 -0.715,-0.59 -0.211,-0.125 -0.453,-0.226 -0.718,-0.296 -0.27,-0.071 -0.586,-0.106 -0.942,-0.106 -0.715,0 -1.269,0.149 -1.668,0.445 -0.394,0.297 -0.594,0.715 -0.594,1.258 0,0.403 0.141,0.727 0.422,0.969 0.282,0.25 0.66,0.391 1.129,0.43 v 0.011 c -0.426,0.043 -0.761,0.184 -1.008,0.426 -0.242,0.238 -0.363,0.551 -0.363,0.93 0,0.476 0.207,0.851 0.617,1.133 0.418,0.281 0.969,0.425 1.657,0.425 0.492,0 0.902,-0.07 1.226,-0.207 0.328,-0.136 0.617,-0.371 0.871,-0.703 l -0.871,-0.66 c -0.148,0.203 -0.316,0.356 -0.5,0.457 -0.18,0.102 -0.39,0.149 -0.64,0.149 -0.301,0 -0.532,-0.059 -0.688,-0.176 -0.156,-0.113 -0.238,-0.274 -0.238,-0.477 0,-0.273 0.129,-0.476 0.379,-0.609 0.254,-0.129 0.714,-0.192 1.386,-0.192 V -5.02 c -0.531,0 -0.91,-0.027 -1.136,-0.078 -0.219,-0.054 -0.391,-0.144 -0.508,-0.269 -0.121,-0.121 -0.18,-0.293 -0.18,-0.516 0,-0.258 0.078,-0.453 0.227,-0.586 0.156,-0.133 0.367,-0.199 0.636,-0.199 m 3.852,3.891 c -0.293,0 -0.574,-0.024 -0.836,-0.067 -0.266,-0.043 -0.437,-0.086 -0.519,-0.133 v 1.063 c 0.085,0.043 0.226,0.078 0.414,0.109 0.195,0.031 0.386,0.047 0.57,0.047 h 3.652 v -1.019 h -1.641 v -3.118 c 0,-0.246 0.047,-0.429 0.137,-0.547 0.094,-0.117 0.254,-0.175 0.485,-0.175 0.133,0 0.281,0.011 0.433,0.043 l 0.129,-0.957 c -0.129,-0.036 -0.301,-0.071 -0.515,-0.102 -0.211,-0.035 -0.395,-0.051 -0.555,-0.051 -1.07,0 -1.606,0.489 -1.606,1.461 v 3.446 z m 9.844,-2.02 c 0,-0.863 -0.227,-1.563 -0.676,-2.09 -0.449,-0.527 -1.047,-0.789 -1.797,-0.789 -0.676,0 -1.231,0.242 -1.672,0.734 h -0.023 c 0.015,-0.214 0.023,-0.425 0.023,-0.628 v -2.282 h -1.586 v 5.403 c 0,0.875 0.246,1.558 0.742,2.058 0.493,0.496 1.165,0.746 2.016,0.746 0.563,0 1.07,-0.129 1.527,-0.39 0.454,-0.262 0.809,-0.633 1.063,-1.114 0.258,-0.476 0.383,-1.027 0.383,-1.648 m -1.582,0.051 c 0,0.636 -0.125,1.136 -0.375,1.508 -0.25,0.367 -0.586,0.55 -1.004,0.55 -0.789,0 -1.184,-0.601 -1.184,-1.808 v -1.461 c 0.41,-0.453 0.879,-0.68 1.403,-0.68 0.371,0 0.656,0.168 0.855,0.5 0.203,0.336 0.305,0.797 0.305,1.391 m 8.312,0.086 c 0,-0.942 -0.261,-1.68 -0.785,-2.215 -0.522,-0.535 -1.246,-0.801 -2.172,-0.801 -0.906,0 -1.617,0.266 -2.133,0.805 -0.515,0.535 -0.777,1.273 -0.777,2.211 0,0.937 0.262,1.672 0.777,2.203 0.516,0.539 1.239,0.808 2.164,0.808 0.954,0 1.676,-0.261 2.176,-0.781 0.5,-0.515 0.75,-1.258 0.75,-2.23 m -1.578,0 c 0,0.691 -0.113,1.195 -0.34,1.508 -0.226,0.308 -0.554,0.464 -0.984,0.464 -0.918,0 -1.375,-0.656 -1.375,-1.972 0,-0.645 0.109,-1.141 0.332,-1.481 0.226,-0.336 0.551,-0.504 0.973,-0.504 0.929,0 1.394,0.661 1.394,1.985 m 3.84,-0.52 c 0,-0.207 0.039,-0.379 0.117,-0.512 0.082,-0.128 0.187,-0.242 0.324,-0.335 0.141,-0.09 0.305,-0.168 0.496,-0.239 0.188,-0.062 0.395,-0.133 0.617,-0.207 l 0.442,-0.129 c 0.547,-0.16 0.93,-0.367 1.145,-0.625 0.214,-0.254 0.324,-0.582 0.324,-0.988 0,-0.219 -0.055,-0.465 -0.164,-0.742 -0.106,-0.277 -0.242,-0.535 -0.407,-0.766 l -0.957,0.395 c 0.196,0.332 0.293,0.605 0.293,0.828 0,0.137 -0.043,0.254 -0.128,0.351 -0.083,0.09 -0.204,0.176 -0.372,0.247 -0.16,0.066 -0.5,0.164 -1.019,0.289 -0.41,0.109 -0.707,0.203 -0.895,0.285 -0.183,0.086 -0.347,0.187 -0.492,0.301 -0.148,0.113 -0.277,0.253 -0.383,0.414 -0.109,0.16 -0.191,0.351 -0.254,0.57 -0.058,0.223 -0.089,0.48 -0.089,0.773 0,0.641 0.129,1.258 0.386,1.848 0.262,0.594 0.606,1.039 1.039,1.332 0.434,0.297 0.93,0.445 1.489,0.445 0.804,0 1.433,-0.254 1.886,-0.757 l -0.746,-0.801 c -0.34,0.359 -0.703,0.539 -1.086,0.539 -0.293,0 -0.554,-0.106 -0.785,-0.317 C 47.508,-3.195 47.32,-3.508 47.176,-3.922 47.031,-4.336 46.961,-4.758 46.961,-5.18 M 13.392264,-20.902983 c 0,-0.801 -0.254,-1.441 -0.754,-1.918 -0.5,-0.473 -1.183,-0.707 -2.054,-0.707 -0.7620002,0 -1.3710002,0.168 -1.8280002,0.508 -0.457,0.344 -0.739,0.84 -0.844,1.488 l 1.512,0.125 c 0.078,-0.324 0.218,-0.558 0.418,-0.703 0.1990002,-0.148 0.4530002,-0.223 0.7570002,-0.223 0.375,0 0.676,0.121 0.899,0.36 0.226,0.242 0.34,0.586 0.34,1.039 0,0.398 -0.106,0.715 -0.321,0.949 -0.211,0.242 -0.504,0.359 -0.886,0.359 -0.418,0 -0.7620002,-0.16 -1.0280002,-0.488 h -1.472 l 0.265,4.262 h 4.5550002 v -1.125 H 9.7672638 l -0.125,-1.91 c 0.3680002,0.32 0.8250002,0.484 1.3710002,0.484 0.723,0 1.297,-0.226 1.727,-0.672 0.434,-0.449 0.652,-1.058 0.652,-1.828 m 2.625,-2.164 c 0,-0.43 -0.047,-0.809 -0.136,-1.141 -0.09,-0.328 -0.239,-0.632 -0.442,-0.918 h -0.996 c 0.211,0.254 0.383,0.536 0.516,0.84 0.133,0.305 0.199,0.59 0.199,0.864 h -0.695 v 1.64 h 1.554 z m 6.528,1.777 c 0,-0.707 -0.235,-1.261 -0.707,-1.652 -0.469,-0.391 -1.141,-0.586 -2.012,-0.586 -0.863,0 -1.531,0.195 -2.008,0.586 -0.476,0.387 -0.711,0.938 -0.711,1.641 0,0.484 0.141,0.89 0.418,1.218 0.281,0.336 0.656,0.539 1.125,0.621 v 0.02 c -0.41,0.09 -0.738,0.293 -0.988,0.609 -0.254,0.313 -0.379,0.676 -0.379,1.09 0,0.617 0.219,1.106 0.656,1.465 0.442,0.359 1.063,0.539 1.867,0.539 0.821,0 1.45,-0.176 1.887,-0.527 0.442,-0.348 0.664,-0.844 0.664,-1.488 0,-0.411 -0.129,-0.774 -0.379,-1.086 -0.246,-0.313 -0.582,-0.508 -1,-0.59 v -0.024 c 0.489,-0.078 0.871,-0.277 1.145,-0.601 0.281,-0.317 0.422,-0.731 0.422,-1.235 m -1.743,3.454 c 0,0.359 -0.082,0.621 -0.25,0.785 -0.164,0.168 -0.414,0.254 -0.746,0.254 -0.652,0 -0.98,-0.348 -0.98,-1.039 0,-0.723 0.332,-1.083 0.992,-1.083 0.328,0 0.574,0.083 0.734,0.25 0.168,0.168 0.25,0.446 0.25,0.833 m 0.176,-3.329 c 0,0.789 -0.394,1.188 -1.183,1.188 -0.364,0 -0.645,-0.106 -0.844,-0.313 -0.191,-0.207 -0.289,-0.507 -0.289,-0.898 0,-0.441 0.098,-0.766 0.289,-0.973 0.195,-0.203 0.488,-0.304 0.887,-0.304 0.39,0 0.679,0.101 0.859,0.304 0.188,0.207 0.281,0.535 0.281,0.996 m 7.723,0.262 c 0,-0.801 -0.254,-1.441 -0.754,-1.918 -0.5,-0.473 -1.184,-0.707 -2.055,-0.707 -0.761,0 -1.371,0.168 -1.828,0.508 -0.457,0.344 -0.738,0.84 -0.844,1.488 l 1.512,0.125 c 0.078,-0.324 0.219,-0.558 0.418,-0.703 0.199,-0.148 0.453,-0.223 0.758,-0.223 0.375,0 0.676,0.121 0.898,0.36 0.227,0.242 0.34,0.586 0.34,1.039 0,0.398 -0.105,0.715 -0.32,0.949 -0.211,0.242 -0.504,0.359 -0.887,0.359 -0.418,0 -0.762,-0.16 -1.027,-0.488 h -1.473 l 0.266,4.262 h 4.555 v -1.125 h -3.184 l -0.125,-1.91 c 0.367,0.32 0.824,0.484 1.371,0.484 0.723,0 1.297,-0.226 1.727,-0.672 0.433,-0.449 0.652,-1.058 0.652,-1.828 m 7.93,-2.519 c -0.004,0.043 -0.012,0.105 -0.02,0.183 -0.008,0.078 -0.016,0.164 -0.023,0.258 -0.008,0.098 -0.016,0.191 -0.02,0.289 -0.004,0.098 -0.008,0.184 -0.008,0.258 h -0.015 c -0.278,-0.731 -0.719,-1.094 -1.321,-1.094 -0.187,0 -0.359,0.043 -0.519,0.129 -0.153,0.086 -0.27,0.203 -0.352,0.352 h -0.023 c 0.015,-0.153 0.023,-0.36 0.023,-0.618 v -1.992 h -1.511 v 8.047 h 1.511 v -3.25 c 0,-1.016 0.328,-1.523 0.989,-1.523 0.347,0 0.628,0.148 0.847,0.445 0.219,0.301 0.328,0.707 0.328,1.223 v 3.105 h 1.512 v -4.512 c 0,-0.464 0.016,-0.898 0.043,-1.3 z m 2.921,1.64 h 1.555 v -1.64 h -1.555 z"
       style="fill:#454f5a icc-color(sRGB-IEC61966-2, 0.1, 0.27198792, 0.31098938, 0.35099792);fill-opacity:1;fill-rule:nonzero;stroke:none"
       transform="matrix(0.35277776,0,0,-0.35277776,98.071474,72.094909)"
       clip-path="url(#clipPath380)"
       sodipodi:nodetypes="cccccccccccccccccsccscccccscscscccccccccccccscccscccccccccccccccscccsccccsscsccscccccccscsccccscsccccscscccccsccsccccscccscscccsscscssccsccscscccccsscsccccscscsccccsscsccccccccscccscccccccsccsccscccccsccccscscscccccccsccsccccccccsccscsccccscscscccccccssscccscscsccccsccccscscscccccccssccscsccscccsccccsscsccsccccccc" />
    <path
       id="path381"
       d="m 172.684,-1.004 c 0,-0.707 -0.235,-1.258 -0.7,-1.644 -0.468,-0.387 -1.129,-0.578 -1.992,-0.578 -0.812,0 -1.461,0.187 -1.941,0.558 -0.481,0.375 -0.762,0.918 -0.844,1.621 l 1.539,0.137 c 0.098,-0.731 0.512,-1.094 1.242,-1.094 0.364,0 0.645,0.09 0.844,0.27 0.203,0.179 0.301,0.453 0.301,0.824 0,0.336 -0.121,0.594 -0.363,0.773 -0.247,0.176 -0.606,0.266 -1.086,0.266 h -0.528 v 1.219 h 0.492 c 0.434,0 0.762,0.09 0.981,0.265 0.219,0.18 0.328,0.434 0.328,0.762 0,0.313 -0.09,0.555 -0.266,0.731 -0.171,0.179 -0.421,0.269 -0.757,0.269 -0.313,0 -0.563,-0.086 -0.758,-0.258 -0.188,-0.172 -0.297,-0.414 -0.328,-0.73 l -1.512,0.105 c 0.082,0.653 0.351,1.164 0.812,1.532 0.465,0.371 1.067,0.554 1.813,0.554 0.793,0 1.41,-0.179 1.855,-0.539 0.45,-0.351 0.672,-0.844 0.672,-1.476 0,-0.473 -0.14,-0.86 -0.418,-1.164 -0.277,-0.305 -0.675,-0.508 -1.199,-0.61 V 0.77 c 0.582,-0.067 1.027,-0.258 1.34,-0.575 0.312,-0.312 0.473,-0.71 0.473,-1.199 m 2.718,-1.746 c 0,-0.43 -0.047,-0.808 -0.14,-1.137 -0.09,-0.332 -0.235,-0.636 -0.442,-0.918 h -0.992 c 0.211,0.254 0.383,0.532 0.516,0.836 0.133,0.305 0.199,0.594 0.199,0.864 h -0.695 v 1.64 h 1.554 z m 1.121,-0.355 v 1.05 c 0.196,0.434 0.477,0.856 0.84,1.266 0.364,0.414 0.824,0.844 1.375,1.289 0.532,0.43 0.903,0.785 1.114,1.067 0.214,0.277 0.324,0.55 0.324,0.82 0,0.66 -0.332,0.988 -0.996,0.988 -0.325,0 -0.571,-0.09 -0.743,-0.262 C 178.27,2.942 178.16,2.68 178.109,2.332 l -1.523,0.086 c 0.086,0.703 0.348,1.238 0.785,1.606 0.441,0.371 1.039,0.554 1.797,0.554 0.816,0 1.445,-0.187 1.883,-0.558 0.437,-0.371 0.656,-0.895 0.656,-1.571 0,-0.351 -0.07,-0.672 -0.211,-0.961 -0.141,-0.285 -0.32,-0.55 -0.535,-0.793 -0.219,-0.242 -0.465,-0.464 -0.734,-0.679 -0.266,-0.211 -0.524,-0.414 -0.774,-0.617 -0.25,-0.2 -0.48,-0.403 -0.687,-0.606 -0.204,-0.203 -0.356,-0.422 -0.457,-0.656 h 3.515 v -1.242 z m 11.559,2.519 c 0,-0.801 -0.25,-1.441 -0.754,-1.918 -0.496,-0.472 -1.18,-0.707 -2.051,-0.707 -0.761,0 -1.371,0.172 -1.832,0.512 -0.453,0.344 -0.734,0.84 -0.843,1.488 l 1.511,0.121 c 0.078,-0.32 0.219,-0.554 0.422,-0.703 0.199,-0.148 0.453,-0.219 0.758,-0.219 0.375,0 0.676,0.118 0.898,0.36 0.223,0.238 0.336,0.586 0.336,1.035 0,0.398 -0.105,0.715 -0.316,0.953 -0.211,0.238 -0.508,0.359 -0.887,0.359 -0.418,0 -0.762,-0.164 -1.027,-0.488 h -1.473 l 0.262,4.258 h 4.555 V 3.344 h -3.184 L 184.336,1.43 c 0.363,0.324 0.82,0.484 1.371,0.484 0.719,0 1.293,-0.222 1.727,-0.672 0.433,-0.449 0.648,-1.054 0.648,-1.828 m 7.934,-2.519 c -0.004,0.043 -0.012,0.105 -0.024,0.183 -0.008,0.078 -0.012,0.164 -0.019,0.258 -0.008,0.098 -0.016,0.195 -0.024,0.289 -0.004,0.098 -0.004,0.184 -0.004,0.262 h -0.015 c -0.282,-0.735 -0.723,-1.098 -1.325,-1.098 -0.187,0 -0.359,0.043 -0.515,0.129 -0.153,0.086 -0.274,0.203 -0.356,0.356 h -0.019 c 0.012,-0.157 0.019,-0.36 0.019,-0.618 V -5.34 h -1.511 v 8.047 h 1.511 v -3.25 c 0,-1.015 0.332,-1.523 0.989,-1.523 0.351,0 0.632,0.148 0.851,0.445 0.219,0.301 0.328,0.711 0.328,1.227 v 3.101 h 1.512 v -4.512 c 0,-0.464 0.012,-0.898 0.043,-1.3 z m 2.921,1.64 h 1.555 v -1.64 h -1.555 z"
       style="fill:#454f5a icc-color(sRGB-IEC61966-2, 0.1, 0.27198792, 0.31098938, 0.35099792);fill-opacity:1;fill-rule:nonzero;stroke:none"
       transform="matrix(0.35277776,0,0,-0.35277776,10.058129,49.222181)"
       clip-path="url(#clipPath382)"
       sodipodi:nodetypes="ccscccscscsccscscsccccscscccccsccccccccscccccssccccscscccccccccccsccccscssscccccccsscccccccscccsccccsscsccsccccccc" />
    <path
       id="path401"
       d="m 0,0 h -85.691 v 32.059 l 33.5,19.843 h 19.062 L 0,32.059 Z"
       style="fill:none;stroke:#454f5a icc-color(sRGB-IEC61966-2, 0.1, 0.27198792, 0.31098938, 0.35099792);stroke-width:1.006;stroke-linecap:butt;stroke-linejoin:miter;stroke-miterlimit:10;stroke-dasharray:none;stroke-opacity:1"
       transform="matrix(0.35277776,0,0,-0.35277776,63.672287,58.279239)"
       clip-path="url(#clipPath402)" />
    <path
       id="path403"
       d="m 0,0 h -0.183 c -6.86,-0.23 -6.954,-9.637 -6.954,-9.637 0,-0.664 0.539,-1.203 1.207,-1.203 0.664,0 1.203,0.539 1.203,1.203 0,0 0.036,2.801 1.465,5.141 l 0.117,-16.535 c 0,-0.664 0.54,-1.203 1.204,-1.203 0.668,0 1.207,0.539 1.207,1.203 l 0.023,9.086 0.008,-0.047 c 0,0.344 0.277,0.617 0.617,0.617 0.34,0 0.617,-0.273 0.617,-0.617 v 0.008 l 0.024,-9.047 c 0,-0.664 0.539,-1.203 1.203,-1.203 0.664,0 1.203,0.539 1.203,1.203 l 0.117,16.535 c 1.434,-2.34 1.465,-5.141 1.465,-5.141 0,-0.664 0.543,-1.203 1.207,-1.203 0.664,0 1.203,0.539 1.203,1.203 0,0 -0.094,9.407 -6.953,9.637"
       style="fill:#454f5a icc-color(sRGB-IEC61966-2, 0.1, 0.27198792, 0.31098938, 0.35099792);fill-opacity:1;fill-rule:nonzero;stroke:none"
       transform="matrix(0.22133738,0,0,-0.35277776,48.734739,50.242541)"
       clip-path="url(#clipPath404)" />
    <path
       id="path405"
       d="m 0,0 c 0,-1.203 -0.977,-2.183 -2.184,-2.183 -1.207,0 -2.187,0.98 -2.187,2.183 0,1.207 0.98,2.184 2.187,2.184 C -0.977,2.184 0,1.207 0,0"
       style="fill:#454f5a icc-color(sRGB-IEC61966-2, 0.1, 0.27198792, 0.31098938, 0.35099792);fill-opacity:1;fill-rule:nonzero;stroke:none"
       transform="matrix(0.35277776,0,0,-0.35277776,49.485359,49.231051)"
       clip-path="url(#clipPath406)" />
    <path
       id="path407"
       d="m 0,0 v -0.5 c 11.891,0 22.648,-4.813 30.441,-12.598 7.789,-7.781 12.61,-18.531 12.61,-30.406 0,-11.875 -4.821,-22.625 -12.61,-30.406 C 22.648,-81.695 11.891,-86.508 0,-86.508 c -11.891,0 -22.648,4.813 -30.441,12.598 -7.789,7.781 -12.61,18.531 -12.61,30.406 0,11.875 4.821,22.625 12.61,30.406 C -22.648,-5.313 -11.891,-0.5 0,-0.5 v 1.004 c -24.332,0 -44.055,-19.703 -44.055,-44.008 0,-24.305 19.723,-44.008 44.055,-44.008 24.332,0 44.055,19.703 44.055,44.008 C 44.055,-19.199 24.332,0.504 0,0.504 Z"
       style="fill:#454f5a icc-color(sRGB-IEC61966-2, 0.1, 0.27198792, 0.31098938, 0.35099792);fill-opacity:1;fill-rule:nonzero;stroke:none"
       transform="matrix(0.35277776,0,0,-0.35277776,106.26053,34.805763)"
       clip-path="url(#clipPath408)" />
    <path
       id="path409"
       d="M 0,0 16.34,-0.293 16.281,-3.375 -0.055,-3.079 Z"
       style="fill:#454f5a icc-color(sRGB-IEC61966-2, 0.1, 0.27198792, 0.31098938, 0.35099792);fill-opacity:1;fill-rule:nonzero;stroke:none"
       transform="matrix(0.35277776,0,0,-0.35277776,103.38183,64.758599)"
       clip-path="url(#clipPath410)" />
    <path
       id="path411"
       d="M 0,0 3.086,-0.016 2.98,-25.578 -0.105,-25.567 Z"
       style="fill:#454f5a icc-color(sRGB-IEC61966-2, 0.1, 0.27198792, 0.31098938, 0.35099792);fill-opacity:1;fill-rule:nonzero;stroke:none"
       transform="matrix(0.35277776,0,0,-0.35277776,90.703874,45.579241)"
       clip-path="url(#clipPath412)" />
    <path
       id="path413"
       d="m 0,0 h 27.691 c 0.848,0 1.532,-0.684 1.532,-1.528 v -21.683 c 0,-0.844 -0.684,-1.532 -1.532,-1.532 H 0 c -0.848,0 -1.531,0.688 -1.531,1.532 V -1.528 C -1.531,-0.684 -0.848,0 0,0"
       style="fill:#454f5a icc-color(sRGB-IEC61966-2, 0.1, 0.27198792, 0.31098938, 0.35099792);fill-opacity:1;fill-rule:nonzero;stroke:none"
       transform="matrix(0.35277776,0,0,-0.35277776,109.42314,45.635581)"
       clip-path="url(#clipPath414)" />
    <path
       id="path415"
       d="M 0,0 6.098,0.008 6.082,8.543 -0.016,8.531 Z"
       style="fill:#ffffff icc-color(sRGB-IEC61966-2, 0.1, 1, 1, 1);fill-opacity:1;fill-rule:nonzero;stroke:none"
       transform="matrix(0.35277776,0,0,-0.35277776,116.86593,49.877341)"
       clip-path="url(#clipPath416)" />
    <path
       id="path417"
       d="M 0,0 6.098,-0.031 6.141,8.5 0.043,8.532 Z"
       style="fill:#ffffff icc-color(sRGB-IEC61966-2, 0.1, 1, 1, 1);fill-opacity:1;fill-rule:nonzero;stroke:none"
       transform="matrix(0.35277776,0,0,-0.35277776,116.84248,53.627161)"
       clip-path="url(#clipPath418)" />
    <path
       id="path419"
       d="m 322.219,550.812 h 10.367 v -1.621 h -10.367 z"
       style="fill:#c8c9cc icc-color(sRGB-IEC61966-2, 0.1, 0.7829895, 0.78799438, 0.79998779);fill-opacity:1;fill-rule:nonzero;stroke:none"
       transform="matrix(0.35277776,0,0,-0.35277776,-4.5654115,250.47285)"
       clip-path="url(#clipPath420)" />
    <path
       id="path421"
       d="m 322.219,548.781 h 10.367 v -1.621 h -10.367 z"
       style="fill:#c8c9cc icc-color(sRGB-IEC61966-2, 0.1, 0.7829895, 0.78799438, 0.79998779);fill-opacity:1;fill-rule:nonzero;stroke:none"
       transform="matrix(0.35277776,0,0,-0.35277776,-4.5654115,250.47285)"
       clip-path="url(#clipPath422)" />
    <path
       id="path423"
       d="m 322.219,546.746 h 10.367 v -1.617 h -10.367 z"
       style="fill:#c8c9cc icc-color(sRGB-IEC61966-2, 0.1, 0.7829895, 0.78799438, 0.79998779);fill-opacity:1;fill-rule:nonzero;stroke:none"
       transform="matrix(0.35277776,0,0,-0.35277776,-4.5654115,250.47285)"
       clip-path="url(#clipPath424)" />
    <path
       id="path425"
       d="m 322.219,552.848 h 10.367 v -1.621 h -10.367 z"
       style="fill:#c8c9cc icc-color(sRGB-IEC61966-2, 0.1, 0.7829895, 0.78799438, 0.79998779);fill-opacity:1;fill-rule:nonzero;stroke:none"
       transform="matrix(0.35277776,0,0,-0.35277776,-4.5654115,250.47285)"
       clip-path="url(#clipPath426)" />
    <path
       id="path427"
       d="m 0,0 c -0.848,0 -1.531,0.688 -1.531,1.532 v 21.683 c 0,0.844 0.683,1.528 1.531,1.528 h 27.691 c 0.848,0 1.532,-0.684 1.532,-1.528 V 1.532 C 29.223,0.688 28.539,0 27.691,0 Z m 30.832,28.196 c 0,-0.035 -3.863,-0.043 -9.016,-0.043 -10.308,0 -25.769,0.043 -25.769,0.043 V -2.605 h 35.512 c 1.636,4.539 2.527,9.437 2.527,14.543 0,5.215 -0.93,10.211 -2.633,14.836 -0.195,0.469 -0.402,0.941 -0.621,1.422"
       style="fill:#c8c9cc icc-color(sRGB-IEC61966-2, 0.1, 0.7829895, 0.78799438, 0.79998779);fill-opacity:1;fill-rule:nonzero;stroke:none"
       transform="matrix(0.35277776,0,0,-0.35277776,109.42314,54.364431)"
       clip-path="url(#clipPath428)" />
    <path
       id="path429"
       d="m 0,0 c 1.703,-4.625 2.633,-9.621 2.633,-14.836 0,-5.106 -0.891,-10.004 -2.528,-14.547 h 0.321 c 0,0 6.886,11.918 -0.426,29.383"
       style="fill:#454f5a icc-color(sRGB-IEC61966-2, 0.1, 0.27198792, 0.31098938, 0.35099792);fill-opacity:1;fill-rule:nonzero;stroke:none"
       transform="matrix(0.35277776,0,0,-0.35277776,120.51911,44.919161)"
       clip-path="url(#clipPath430)" />
    <path
       id="path431"
       d="m 0,0 -6.098,0.031 0.043,8.532 6.098,-0.032 z m -6.031,10.66 -0.016,8.531 6.098,0.012 0.015,-8.531 z m 6.593,12.024 h -27.691 c -0.848,0 -1.531,-0.684 -1.531,-1.528 V -0.527 c 0,-0.844 0.683,-1.532 1.531,-1.532 H 0.562 c 0.844,0 1.532,0.688 1.532,1.532 v 21.683 c 0,0.844 -0.688,1.528 -1.532,1.528"
       style="fill:#454f5a icc-color(sRGB-IEC61966-2, 0.1, 0.27198792, 0.31098938, 0.35099792);fill-opacity:1;fill-rule:nonzero;stroke:none"
       transform="matrix(0.35277776,0,0,-0.35277776,118.99363,53.638021)"
       clip-path="url(#clipPath432)" />
    <path
       id="path433"
       d="m 0,0 -6.098,-0.012 0.016,-8.531 6.098,0.008 z"
       style="fill:#c8c9cc icc-color(sRGB-IEC61966-2, 0.1, 0.7829895, 0.78799438, 0.79998779);fill-opacity:1;fill-rule:nonzero;stroke:none"
       transform="matrix(0.35277776,0,0,-0.35277776,119.01154,46.863561)"
       clip-path="url(#clipPath434)" />
    <path
       id="path435"
       d="m 0,0 -0.043,-8.532 6.098,-0.031 0.043,8.531 z"
       style="fill:#c8c9cc icc-color(sRGB-IEC61966-2, 0.1, 0.7829895, 0.78799438, 0.79998779);fill-opacity:1;fill-rule:nonzero;stroke:none"
       transform="matrix(0.35277776,0,0,-0.35277776,116.85767,50.617191)"
       clip-path="url(#clipPath436)" />
    <path
       id="path437"
       d="M 0,0 C -0.141,0 -0.277,0.004 -0.418,0.012"
       style="fill:none;stroke:#454f5a icc-color(sRGB-IEC61966-2, 0.1, 0.27198792, 0.31098938, 0.35099792);stroke-width:0.168;stroke-linecap:butt;stroke-linejoin:miter;stroke-miterlimit:10;stroke-dasharray:none;stroke-opacity:1"
       transform="matrix(0.35277776,0,0,-0.35277776,117.68724,58.276489)"
       clip-path="url(#clipPath438)" />
    <path
       id="path439"
       d="M 0,0 C -3.871,0.566 -6.902,3.723 -7.281,7.649"
       style="fill:none;stroke:#454f5a icc-color(sRGB-IEC61966-2, 0.1, 0.27198792, 0.31098938, 0.35099792);stroke-width:0.168;stroke-linecap:butt;stroke-linejoin:miter;stroke-miterlimit:10;stroke-dasharray:0.876, 0.876;stroke-dashoffset:0;stroke-opacity:1"
       transform="matrix(0.35277776,0,0,-0.35277776,117.24354,58.243429)"
       clip-path="url(#clipPath440)" />
    <path
       id="path441"
       d="M 0,0 C -0.008,0.141 -0.012,0.277 -0.012,0.418"
       style="fill:none;stroke:#454f5a icc-color(sRGB-IEC61966-2, 0.1, 0.27198792, 0.31098938, 0.35099792);stroke-width:0.168;stroke-linecap:butt;stroke-linejoin:miter;stroke-miterlimit:10;stroke-dasharray:none;stroke-opacity:1"
       transform="matrix(0.35277776,0,0,-0.35277776,114.66523,55.400541)"
       clip-path="url(#clipPath442)" />
    <path
       id="path443"
       d="m 346.719,553.379 h 0.349 v -8.742 h -0.349 z"
       style="fill:#454f5a icc-color(sRGB-IEC61966-2, 0.1, 0.27198792, 0.31098938, 0.35099792);fill-opacity:1;fill-rule:nonzero;stroke:none"
       transform="matrix(0.35277776,0,0,-0.35277776,-4.5654115,250.47285)"
       clip-path="url(#clipPath444)" />
    <path
       style="fill:#00ff00;stroke:#454f5a;stroke-width:0.3;stroke-dasharray:none;stroke-opacity:1;marker-start:url(#ArrowWide);marker-end:url(#ArrowWide)"
       d="M 30.981364,46.969531 V 58.456679"
       id="path7" />
    <path
       style="fill:#00ff00;stroke:#454f5a;stroke-width:0.374288;stroke-dasharray:none;stroke-opacity:1;marker-start:url(#ArrowWide);marker-end:url(#ArrowWide)"
       d="M 66.447387,40.416301 V 58.296869"
       id="path8" />
    <path
       style="fill:#00ff00;stroke:#454f5a;stroke-width:0.480045;stroke-dasharray:none;stroke-opacity:1;marker-start:url(#ArrowWide);marker-end:url(#ArrowWide)"
       d="M 121.21287,68.346759 H 91.800264"
       id="path9" />
    <text
       xml:space="preserve"
       style="font-size:3.79959px;font-family:'Nimbus Sans';-inkscape-font-specification:'Nimbus Sans';text-align:center;text-anchor:middle;fill:#454f5a;fill-opacity:1;stroke:none;stroke-width:0.269263;stroke-dasharray:none;stroke-opacity:1"
       x="23.591221"
       y="55.030716"
       id="text7"
       transform="scale(1.0229681,0.97754759)"><tspan
         sodipodi:role="line"
         id="tspan7"
         style="font-style:normal;font-variant:normal;font-weight:bold;font-stretch:normal;font-family:'Nimbus Sans';-inkscape-font-specification:'Nimbus Sans Bold';fill:#454f5a;fill-opacity:1;stroke:none;stroke-width:0.269263"
         x="23.591221"
         y="55.030716">2,15 μ.</tspan></text>
    <rect
       style="fill:none;fill-opacity:1;stroke:none;stroke-width:0.286846;stroke-dasharray:none;stroke-opacity:1"
       id="rect7"
       width="138.23782"
       height="95.285774"
       x="0.88108826"
       y="2.4674268" />
  </g>
</svg>
